<?xml version="1.0" encoding="UTF-8"?>
<svg version="1.1" viewBox="0 0 2000 1500" width="500" height="500"
    xmlns="http://www.w3.org/2000/svg">
    <path transform="translate(0)" d="m0 0h2e3v1500h-2e3z" fill="#FEFEFE" />
    <path transform="translate(1090,496)"
        d="m0 0h103l9 2 8 6 4 9 1 6v302l-2 20-4 17-6 16-7 12-11 13-14 12-65 55-14 10-19 10-24 8-24 5-26 3-20 1h-34l-26-2-25-4-21-6-17-7-15-8-14-10-15-15-7-10-6-10-6-16-5-20-2-14-1-13v-90l2-9 5-8 15-13 11-9 14-12 11-9 26-22 9-4 6-1h93l10 2 5 3 1-117 4-10 13-12 11-9 14-12 39-33 8-5z"
        fill="#FEFEFE" />
    <path transform="translate(583,281)"
        d="m0 0h935l1 1v935l-1 1h-935l-1-1v-155l1-1h28l1 1v126h878v-877h-878v126l-1 1h-28l-1-1v-155z"
        fill="#FE908A" />
    <path transform="translate(1090,496)"
        d="m0 0h103l9 2 8 6 4 9 1 6v302l-2 20-4 17-6 16-7 12-11 13-14 12-65 55-14 10-19 10-24 8-24 5-26 3-20 1h-34l-26-2-25-4-21-6-17-7-15-8-14-10-15-15-7-10-6-10-6-16-5-20-2-14-1-13v-90l2-9 5-8 15-13 11-9 14-12 11-9 26-22 9-4 6-1h93l10 2 5 3 1-117 4-10 13-12 11-9 14-12 39-33 8-5zm3 6-9 2-6 4-3 7-1 278-2 9-6 9-9 4-15 2h-13l-16-2-9-4-5-5-4-10-1-84-3-8-6-5-3-1h-102l-8 4-3 4-2 7v111l2 18 4 17 6 15 7 11 11 12 13 10 16 8 18 7 25 6 21 3 32 2h30l32-2 27-4 22-6 19-7 16-9 13-11 9-10 8-14 5-13 4-18 1-8v-316l-4-8-8-4-6-1z"
        fill="#FE908A" />
    <path transform="translate(1138,555)"
        d="m0 0h6v257l-4 17-8 16-8 10-9 8-14 7-17 5-21 3-17 1h-16l-27-2-20-4-19-7-14-9-9-9-8-14-4-15-1-6v-60h6l1 56 3 15 5 12 8 11 7 7 14 8 20 6 23 3h45l22-3 17-5 13-7 9-8 9-14 5-13 2-11z"
        fill="#FE908A" />
</svg>